<?xml version="1.0" encoding="UTF-8"?>
<svg id="Calque_2" data-name="Calque 2" xmlns="http://www.w3.org/2000/svg" viewBox="0 0 9.89 9.89">
  <defs>
    <style>
      .cls-1 {
        fill: #231f20;
      }

      .cls-2 {
        fill: #fff;
      }
    </style>
  </defs>
  <g id="Layer_1" data-name="Layer 1">
    <g>
      <path class="cls-2" d="M1.18.2h7.53c.54,0,.98.44.98.98v7.53c0,.54-.44.98-.98.98H1.18c-.54,0-.98-.44-.98-.98V1.18C.2.64.64.2,1.18.2Z"/>
      <path class="cls-1" d="M1.18,0h7.53c.65,0,1.18.53,1.18,1.18v7.53c0,.65-.53,1.18-1.18,1.18H1.18c-.65,0-1.18-.53-1.18-1.18V1.18C0,.53.53,0,1.18,0Z"/>
      <path class="cls-2" d="M5.67,4.14v-1.7h.59c.24,0,.29.16.32.19.09.09.15.14.28.14h.65v-1.44h-.65c-.13,0-.19-.05-.28-.14-.03-.03-.07-.19-.32-.19h-.9v2.94l-.41-.27-3.61,2.33h.85v2.82h2.05v-2.24h1.42v2.19h2.05v-2.77h.84l-2.89-1.87Z"/>
    </g>
  </g>
</svg>