<?xml version="1.0" encoding="UTF-8"?>
<svg id="Calque_2" data-name="Calque 2" xmlns="http://www.w3.org/2000/svg" viewBox="0 0 9.88 9.88">
  <defs>
    <style>
      .cls-1 {
        fill: #231f20;
      }

      .cls-2 {
        fill: #fff;
      }
    </style>
  </defs>
  <g id="Layer_1" data-name="Layer 1">
    <g>
      <path class="cls-2" d="M1.18.2h7.52c.54,0,.98.44.98.98v7.52c0,.54-.44.98-.98.98H1.18c-.54,0-.98-.44-.98-.98V1.18C.2.64.64.2,1.18.2Z"/>
      <path class="cls-1" d="M1.18,0h7.52c.65,0,1.18.53,1.18,1.18v7.52c0,.65-.53,1.18-1.18,1.18H1.18C.53,9.88,0,9.35,0,8.7V1.18C0,.53.53,0,1.18,0Z"/>
      <path class="cls-2" d="M5.05,2.06c.37,0,.66-.3.66-.66s-.3-.66-.66-.66-.66.3-.66.66.3.66.66.66Z"/>
      <path class="cls-2" d="M2.26,2.54h1.97c.1,0,.19.08.19.19v.57c0,.1-.08.19-.19.19h-1.97c-.1,0-.19-.08-.19-.19v-.57c0-.1.08-.19.19-.19Z" transform="translate(-.45 5.46) rotate(-76.44)"/>
      <path class="cls-2" d="M6.48,8.98s0,0,0,0c0,.08.07.15.15.15.08,0,.14-.06.15-.13l1.11-6.02h0c0-.09-.07-.16-.15-.16-.08,0-.13.06-.15.13l-1.11,6.02Z"/>
      <path class="cls-2" d="M2.79,8.59s0,.06,0,.09c0,.26.21.46.46.46.21,0,.39-.14.45-.33l.8-3.31.76,3.29c.05.2.23.35.45.35.26,0,.46-.21.46-.46,0-.04,0-.07,0-.1l-1.05-4.37.09-.38.07.3c.06.2.24.22.24.22l1.08.27s.04,0,.06,0c.18,0,.32-.14.32-.32,0-.15-.1-.28-.24-.31l-.93-.23-.26-1.04c-.12-.58-.68-.57-.68-.57-.54-.01-.67.55-.67.55l-1.4,5.88Z"/>
    </g>
  </g>
</svg>