<?xml version="1.0" encoding="UTF-8"?>
<svg id="Calque_1" xmlns="http://www.w3.org/2000/svg" version="1.1" viewBox="0 0 166.2 191.7">
  <!-- Generator: Adobe Illustrator 29.3.1, SVG Export Plug-In . SVG Version: 2.1.0 Build 151)  -->
  <defs>
    <style>
      .st0 {
        stroke-miterlimit: 3.9;
      }

      .st0, .st1 {
        fill: none;
        stroke: #fff;
        stroke-width: 4.3px;
      }

      .st2 {
        fill: #1d1d1b;
      }

      .st1 {
        stroke-linecap: round;
        stroke-linejoin: round;
      }
    </style>
  </defs>
  <polygon class="st2" points="166.2 64.7 83.4 0 0 64.6 0 191.7 166.2 191.7 166.2 64.7"/>
  <g>
    <polygon class="st1" points="90.7 135.6 108.9 96 60 96 60.2 95.8 55.1 107.6 90.7 135.6"/>
    <path class="st1" d="M60.2,96v-10c-1.1-2.2.4-2.9-3.1-5.6-3.6-2.7-2.9-2.9-3.3-5.1-.4-2.2,4-5.1,10.2-3.1,6.2,2,8.2,3.6,8.2,3.6"/>
    <path class="st1" d="M107.3,95.1c1.5-2.4.4-4.7-.2-7.1-1.3-2.7-10.4-.9-8.7-6.7,0-1.6,2.4-1.6,4-1.6h10.4c4.2,0,10.9-.9,10.9,3.3s-3.1,3.1-5.6,3.8c-4,1.3-9,3.1-9,7.6-2.4,0-.8,3.1-1.9.6.2,0,0,.2,0,0Z"/>
    <g>
      <path class="st1" d="M83.4,135.6c0-4,3.3-7.3,7.3-7.3s7.3,3.3,7.3,7.3-3.3,7.3-7.3,7.3-7.3-3.3-7.3-7.3Z"/>
      <path class="st1" d="M90.7,135.6"/>
    </g>
    <line class="st0" x1="94.9" y1="152.2" x2="86.2" y2="118"/>
    <line class="st1" x1="82.2" y1="118.9" x2="91.1" y2="116.4"/>
    <line class="st1" x1="91.3" y1="153.5" x2="100.2" y2="151.1"/>
    <path class="st0" d="M107.3,132.2c0-13.5,11.1-24.9,24.7-24.9s24.9,11.3,24.9,24.9-11.3,24.7-24.9,24.7-24.7-11.1-24.7-24.7Z"/>
    <path class="st0" d="M10.9,132.2c0-13.5,11.1-24.9,24.7-24.9s24.9,11.3,24.9,24.9-11.3,24.7-24.9,24.7-24.7-11.1-24.7-24.7Z"/>
    <path class="st1" d="M31.4,132.7s9.5,4.7,17.6-12.4c0-.2,7.1-14.7,7.1-14.7"/>
    <polyline class="st1" points="108.4 96 131.8 132 90.7 135.6"/>
  </g>
</svg>