<?xml version="1.0" encoding="UTF-8"?>
<svg id="Calque_2" data-name="Calque 2" xmlns="http://www.w3.org/2000/svg" viewBox="0 0 9.88 9.88">
  <defs>
    <style>
      .cls-1 {
        fill: #231f20;
      }

      .cls-2 {
        fill: #fff;
      }
    </style>
  </defs>
  <g id="Layer_1" data-name="Layer 1">
    <g>
      <path class="cls-2" d="M1.18.2h7.52c.54,0,.98.44.98.98v7.52c0,.54-.44.98-.98.98H1.18c-.54,0-.98-.44-.98-.98V1.18C.2.64.64.2,1.18.2Z"/>
      <path class="cls-1" d="M8.7,0H1.18C.53,0,0,.53,0,1.18v7.52c0,.65.53,1.18,1.18,1.18h7.52c.65,0,1.18-.53,1.18-1.18V1.18c0-.65-.53-1.18-1.18-1.18ZM7.22,2.85l-3.41,1.58-.28-.48,3.07-2.17.62,1.07ZM4.17.59l1.07.62-1.88,2.57-.48-.28,1.29-2.91ZM1.46,4.94c0-.5.41-.91.91-.91s.91.41.91.91-.41.91-.91.91-.91-.41-.91-.91ZM4.17,9.29l-1.29-2.91.48-.28,1.88,2.57-1.07.62ZM6.61,8.1l-3.07-2.17.28-.48,3.41,1.58-.62,1.07ZM8.48,5.56l-4.61-.34v-.55l4.61-.34v1.23Z"/>
    </g>
  </g>
</svg>