<?xml version="1.0" encoding="UTF-8"?>
<svg id="Calque_2" data-name="Calque 2" xmlns="http://www.w3.org/2000/svg" viewBox="0 0 9.89 9.89">
  <defs>
    <style>
      .cls-1 {
        fill: #231f20;
      }

      .cls-2 {
        fill: #fff;
      }

      .cls-3 {
        fill: #007a51;
      }
    </style>
  </defs>
  <g id="Bienvenue_Cyclistes" data-name="Bienvenue Cyclistes">
    <rect class="cls-1" x="0" y="0" width="9.89" height="9.89" rx="4.94" ry="4.94"/>
    <path class="cls-2" d="M4.94.2h0c2.62,0,4.75,2.13,4.75,4.75h0c0,2.62-2.13,4.75-4.74,4.75h0C2.32,9.69.2,7.57.2,4.95H.2C.2,2.33,2.33.2,4.94.2Z"/>
    <path class="cls-3" d="M8.82,5.07c.09-.13.03-.37-.11-.44-.14-.06-.24-.25-.21-.4.02-.16-.14-.34-.3-.34-.15.01-.33-.11-.37-.26-.06-.15-.28-.23-.42-.16-.13.08-.35.05-.45-.05-.12-.1-.36-.07-.45.05-.08.13-.28.21-.42.16-.15-.04-.35.1-.37.26-.01.15-.15.31-.3.34-.15.04-.26.25-.21.4.06.14.01.35-.11.44-.12.11-.12.35,0,.45.12.09.17.3.11.44-.05.15.06.36.21.4.15.03.29.19.3.34.02.16.22.29.37.26.15-.05.35.03.42.16.09.13.33.16.45.05.11-.11.32-.14.45-.05.14.07.37-.02.42-.16.05-.15.22-.27.37-.26.16,0,.32-.18.3-.34-.03-.15.07-.34.21-.4.14-.07.2-.31.11-.44-.1-.12-.1-.33,0-.45ZM6.96,6.48c-.66,0-1.19-.53-1.19-1.19s.53-1.19,1.19-1.19,1.19.53,1.19,1.19-.53,1.19-1.19,1.19Z"/>
    <path class="cls-3" d="M1.04,3.61l.79,3.23c.07.28.43.38.63.16l3.81-4.38c.17-.19,0-.49-.26-.44l-4.68.96c-.22.04-.35.26-.3.47Z"/>
    <path class="cls-3" d="M6.73,6.01c-.05,0-.1-.02-.14-.06l-.28-.25c-.09-.08-.09-.22-.02-.3.08-.09.22-.09.3-.02.04.04.09.09.12.11l.61-.69c.08-.09.21-.1.3-.02.04.04.07.09.07.15,0,.06-.02.11-.05.16l-.75.85s-.09.07-.15.07c0,0,0,0-.01,0Z"/>
  </g>
</svg>