<?xml version="1.0" encoding="UTF-8"?>
<svg id="Calque_2" data-name="Calque 2" xmlns="http://www.w3.org/2000/svg" viewBox="0 0 9.88 9.88">
  <defs>
    <style>
      .cls-1 {
        fill: #231f20;
      }

      .cls-2 {
        fill: #fff;
      }
    </style>
  </defs>
  <g id="Layer_1" data-name="Layer 1">
    <g>
      <path class="cls-2" d="M1.18.2h7.52c.54,0,.98.44.98.98v7.52c0,.54-.44.98-.98.98H1.18c-.54,0-.98-.44-.98-.98V1.18C.2.64.64.2,1.18.2Z"/>
      <path class="cls-1" d="M1.18,0h7.52c.65,0,1.18.53,1.18,1.18v7.52c0,.65-.53,1.18-1.18,1.18H1.18c-.65,0-1.18-.53-1.18-1.18V1.18C0,.53.53,0,1.18,0Z"/>
      <path class="cls-2" d="M8.58,7.42h-.75v-3.72c0-.48-.32-.87-.71-.87s-.71.27-.71.6v1.95c0,.75-.66,1.35-1.46,1.35s-1.46-.61-1.46-1.35v-1.95c0-.33-.32-.6-.71-.6s-.71.39-.71.87v3.72h-.75v-3.72c0-.89.66-1.62,1.46-1.62s1.46.61,1.46,1.35v1.95c0,.33.32.6.71.6s.71-.27.71-.6v-1.95c0-.75.66-1.35,1.46-1.35s1.46.72,1.46,1.62v3.72Z"/>
    </g>
  </g>
</svg>