<?xml version="1.0" encoding="UTF-8"?>
<svg id="Calque_2" data-name="Calque 2" xmlns="http://www.w3.org/2000/svg" viewBox="0 0 9.88 9.88">
  <defs>
    <style>
      .cls-1 {
        fill: #231f20;
      }

      .cls-2 {
        fill: #fff;
      }
    </style>
  </defs>
  <g id="Layer_1" data-name="Layer 1">
    <g>
      <path class="cls-2" d="M1.18.2h7.52c.54,0,.98.44.98.98v7.52c0,.54-.44.98-.98.98H1.18c-.54,0-.98-.44-.98-.98V1.18C.2.64.64.2,1.18.2Z"/>
      <path class="cls-1" d="M8.7,0H1.18C.53,0,0,.53,0,1.18v7.52c0,.65.53,1.18,1.18,1.18h7.52c.65,0,1.18-.53,1.18-1.18V1.18c0-.65-.53-1.18-1.18-1.18Z"/>
      <path class="cls-2" d="M3.33,7.86s0-.21,0-.24h3.06c-.04.09-.08.19-.1.29-.02.14-.01.26.02.39h-2.56c-.23,0-.42-.2-.42-.43ZM6.71,2.35c0,.44,0,4.31,0,4.75h-2.92l1.83-1.53v-3.22c.16,0,.94,0,1.1,0ZM6.99,8.29h-.12c-.07-.08-.1-.18-.08-.3.04-.2.18-.37.25-.39h0c.1-.04.17-.13.17-.24V2.1c0-.14-.11-.26-.25-.26,0,0-1.06,0-1.36,0,0-.25,0-.59,0-.59,0-.1-.06-.2-.16-.24-.1-.04-.21-.02-.28.05l-1.78,1.77c-.31.31-.56.9-.56,1.34v3.68c-.01.52.4.94.92.94h3.24c.14,0,.26-.1.26-.25h0c0-.14-.11-.26-.25-.26Z"/>
    </g>
  </g>
</svg>