<?xml version="1.0" encoding="UTF-8"?>
<svg id="Calque_2" data-name="Calque 2" xmlns="http://www.w3.org/2000/svg" viewBox="0 0 9.88 9.88">
  <defs>
    <style>
      .cls-1 {
        fill: #231f20;
      }

      .cls-2 {
        fill: #fff;
      }
    </style>
  </defs>
  <g id="Layer_1" data-name="Layer 1">
    <g>
      <path class="cls-1" d="M1.18,0h7.52c.65,0,1.18.53,1.18,1.18v7.52c0,.65-.53,1.18-1.18,1.18H1.18c-.65,0-1.18-.53-1.18-1.18V1.18C0,.53.53,0,1.18,0Z"/>
      <path class="cls-2" d="M1.95,4.37c-.04.07-.06.15-.07.24,0,.04,0,.09,0,.13l.03,1.97-.68,1.46s-.04.09-.05.15c-.04.24.13.47.37.5.19.03.37-.07.45-.22l.75-1.6s.03-.08.04-.12c0-.02,0-.04,0-.06v-1.22s1.14.5,1.14.5l.19,1.19c.04.17.18.31.37.34.24.04.47-.13.5-.37,0-.04,0-.08,0-.12l-.23-1.44c-.03-.14-.12-.26-.25-.32l-1.03-.46.65-1.14.32.41s.08.07.12.09l1.24.36c.16.04.33-.05.4-.21.07-.18-.01-.38-.19-.46,0,0-.01,0-.02,0l-1.07-.32-.81-.97c-.12-.13-.28-.22-.47-.25-.33-.05-.64.11-.8.37l-.9,1.55Z"/>
      <path class="cls-2" d="M5.49,7.19l-.08.59-2.13.52.02.37h5.19c.18,0,.33-.15.33-.33V1.34s-.72-.17-.72-.17l-.41,1.84-.68.29-.61,1.7.58,1.3-.16.5-1.33.4Z"/>
      <circle class="cls-2" cx="4.05" cy="1.69" r=".66"/>
      <path class="cls-2" d="M2.73,2.46c.05-.09.02-.21-.07-.26l-.32-.19c-.09-.05-.21-.02-.26.07l-.99,1.7c-.05.09-.02.21.07.26l.32.19c.09.05.2.02.26-.07l.99-1.7Z"/>
    </g>
  </g>
</svg>