<?xml version="1.0" encoding="UTF-8"?>
<svg id="Calque_2" data-name="Calque 2" xmlns="http://www.w3.org/2000/svg" viewBox="0 0 9.88 9.88">
  <defs>
    <style>
      .cls-1 {
        fill: #231f20;
      }

      .cls-2 {
        fill: #fff;
      }
    </style>
  </defs>
  <g id="Layer_1" data-name="Layer 1">
    <g>
      <path class="cls-2" d="M1.18.2h7.52c.54,0,.98.44.98.98v7.52c0,.54-.44.98-.98.98H1.18c-.54,0-.98-.44-.98-.98V1.18C.2.64.64.2,1.18.2Z"/>
      <path class="cls-1" d="M1.18,0h7.52c.65,0,1.18.53,1.18,1.18v7.52c0,.65-.53,1.18-1.18,1.18H1.18c-.65,0-1.18-.53-1.18-1.18V1.18C0,.53.53,0,1.18,0Z"/>
      <path class="cls-2" d="M8.2,3.97s-.08,1.62-1.5,1.48c0,0-.16-1.36,1.5-1.48Z"/>
      <path class="cls-2" d="M7.07,6.09c.19-.18.44-.29.72-.29.57,0,1.03.46,1.03,1.03,0,.02,0,.04,0,.06h0c-.02.22-.09.5-.26.84,0,0-.29.55-.52.81l-.02.02c-.11.11-.27.18-.44.18-.21,0-.4-.1-.51-.26h0c-.11.16-.3.26-.51.26-.17,0-.33-.07-.44-.18l-.02-.02c-.23-.25-.52-.81-.52-.81-.17-.34-.24-.62-.25-.84h0s0-.04,0-.06c0-.57.46-1.03,1.03-1.03.28,0,.54.11.72.29"/>
      <rect class="cls-2" x="2.42" y="1.16" width="1.25" height=".47"/>
      <path class="cls-2" d="M1.53,4.52c0,.15.21.32.38.12l.46-.6s.05-.08.05-.15v-1.45c0-.4-.38-.07-.52.07l-.32.41c-.05.07-.05.09-.05.13v1.46ZM1.24,3.04c0-.09.03-.17.07-.24l.56-.71c.16-.2.33-.18.33-.18h1.45c.9.09.9.94.9.94v5.55c0,.15-.12.27-.27.27H1.51c-.15,0-.27-.12-.27-.27V3.04Z"/>
    </g>
  </g>
</svg>