<?xml version="1.0" encoding="UTF-8"?>
<svg id="Calque_2" data-name="Calque 2" xmlns="http://www.w3.org/2000/svg" viewBox="0 0 9.88 9.88">
  <defs>
    <style>
      .cls-1 {
        fill: #fff;
      }
    </style>
  </defs>
  <g id="Layer_1" data-name="Layer 1">
    <g>
      <path class="cls-1" d="M2.14.19h5.53c1.09,0,1.98.89,1.98,1.98v5.53c0,1.09-.89,1.98-1.98,1.98H2.15c-1.09,0-1.98-.89-1.98-1.98V2.16C.17,1.07,1.05.19,2.14.19Z"/>
      <path d="M2.06,0h5.76c1.14,0,2.06.92,2.06,2.06v5.76c0,1.14-.92,2.06-2.06,2.06H2.06c-1.14,0-2.06-.92-2.06-2.06V2.06C0,.92.92,0,2.06,0Z"/>
      <g>
        <path class="cls-1" d="M5.96,3.18c-.1.14-.27.24-.46.24-.23,0-.42-.13-.51-.33-.09.19-.29.33-.51.33-.19,0-.36-.09-.46-.23,0,0-.25.3-.56.26l-.14-.65c.29,0,.53-.2.6-.47,0,0,0,0,0,0h0c.08.21.29.37.54.37s.45-.15.53-.37c.08.23.29.39.54.39s.46-.16.54-.39h0s0,0,0,0c.07.27.31.47.6.47l-.14.64c-.32.03-.56-.26-.56-.26"/>
        <polyline class="cls-1" points="6.19 8.68 7.09 8.68 8.28 1.97 7.38 1.96 6.32 7.93 6.32 7.93 3.66 7.94 2.61 1.96 1.71 1.97 2.89 8.68 3.79 8.68"/>
      </g>
    </g>
  </g>
</svg>