<?xml version="1.0" encoding="UTF-8"?>
<svg id="Calque_2" data-name="Calque 2" xmlns="http://www.w3.org/2000/svg" viewBox="0 0 9.88 9.88">
  <defs>
    <style>
      .cls-1 {
        fill: #231f20;
      }

      .cls-2, .cls-3 {
        fill: #fff;
      }

      .cls-3 {
        fill-rule: evenodd;
      }
    </style>
  </defs>
  <g id="Layer_1" data-name="Layer 1">
    <g>
      <path class="cls-2" d="M1.18.2h7.52c.54,0,.98.44.98.98v7.52c0,.54-.44.98-.98.98H1.18c-.54,0-.98-.44-.98-.98V1.18C.2.64.64.2,1.18.2Z"/>
      <path class="cls-1" d="M1.18,0h7.52c.65,0,1.18.53,1.18,1.18v7.52c0,.65-.53,1.18-1.18,1.18H1.18C.53,9.88,0,9.35,0,8.7V1.18C0,.53.53,0,1.18,0Z"/>
      <g>
        <path class="cls-3" d="M2.22,1.96s.06,0,.1,0c.03,0,1-.24,1.25-.3.04.17.15.31.3.4v.48h.68v-.5c.13-.09.22-.21.27-.36.3.08,1.16.29,1.19.29.03,0,.1,0,.1,0,.27,0,.49-.22.49-.49s-.22-.49-.49-.49c-.04,0-.08,0-.08,0l-1.22.27c-.1-.24-.33-.42-.61-.42s-.52.18-.61.43l-1.28-.29s-.04,0-.08,0c-.27,0-.49.22-.49.49s.22.49.49.49Z"/>
        <path class="cls-3" d="M7.46,6.48v.02s-.71,1.46-.72,1.51c-.02.07-.04.17-.05.27,0,.42.34.77.77.77s.77-.34.77-.77c0-.16-.07-.29-.07-.29l-.7-1.51Z"/>
        <path class="cls-3" d="M8.2,5.66v-.81c0-1.22-1.17-1.17-1.17-1.17h-1.47v-.43l-.78-.42h-1.14l-.78.41v.43h-1.32v1.47h5.18v.51h-.16v.55h1.78v-.55h-.15Z"/>
      </g>
    </g>
  </g>
</svg>