<?xml version="1.0" encoding="UTF-8"?>
<svg id="Calque_2" data-name="Calque 2" xmlns="http://www.w3.org/2000/svg" viewBox="0 0 9.88 9.88">
  <defs>
    <style>
      .cls-1 {
        fill: #231f20;
      }

      .cls-2 {
        fill: #fff;
      }
    </style>
  </defs>
  <g id="Layer_1" data-name="Layer 1">
    <g>
      <path class="cls-2" d="M1.18.2h7.52c.54,0,.98.44.98.98v7.52c0,.54-.44.98-.98.98H1.18c-.54,0-.98-.44-.98-.98V1.18C.2.64.64.2,1.18.2Z"/>
      <path class="cls-1" d="M1.18,0h7.52c.65,0,1.18.53,1.18,1.18v7.52c0,.65-.53,1.18-1.18,1.18H1.18c-.65,0-1.18-.53-1.18-1.18V1.18C0,.53.53,0,1.18,0Z"/>
      <g>
        <path class="cls-2" d="M4.02,4.24s-.05,1.08-1,.99c0,0-.11-.91,1-.99Z"/>
        <path class="cls-2" d="M3.27,5.65c.12-.12.29-.2.48-.2.38,0,.69.31.69.69,0,.01,0,.03,0,.04h0c-.01.15-.06.33-.17.56,0,0-.19.37-.35.54h-.01c-.08.09-.18.14-.29.14-.14,0-.26-.07-.34-.17h0c-.08.11-.2.17-.34.17-.12,0-.22-.05-.3-.12h-.01c-.15-.18-.35-.55-.35-.55-.11-.23-.16-.42-.17-.56h0s0-.03,0-.04c0-.38.31-.69.69-.69.19,0,.36.07.48.2"/>
      </g>
      <g>
        <rect class="cls-2" x="6.08" y="3.42" width=".88" height=".33"/>
        <path class="cls-2" d="M5.45,5.77c0,.11.15.22.27.09l.32-.42s.03-.06.03-.1v-1.01c0-.28-.26-.05-.36.05l-.22.28s-.04.07-.04.09v1.02ZM5.24,4.74c0-.06.02-.12.05-.17l.39-.5c.11-.14.23-.12.23-.12h1.02c.63.06.63.66.63.66v2.21c0,.64-.52.61-1.16.61h0c-.64,0-1.16.04-1.16-.61v-2.08Z"/>
      </g>
      <polygon class="cls-2" points="8.95 8.58 .87 8.58 .87 3.04 8.71 1.31 8.82 1.8 1.37 3.45 1.37 8.08 8.45 8.08 8.45 3.29 8.95 3.29 8.95 8.58"/>
    </g>
  </g>
</svg>