<?xml version="1.0" encoding="UTF-8"?>
<svg id="Calque_2" data-name="Calque 2" xmlns="http://www.w3.org/2000/svg" viewBox="0 0 9.88 9.88">
  <defs>
    <style>
      .cls-1 {
        fill: #231f20;
      }

      .cls-2 {
        fill: #fff;
      }
    </style>
  </defs>
  <g id="Layer_1" data-name="Layer 1">
    <g>
      <path class="cls-2" d="M1.18.2h7.52c.54,0,.98.44.98.98v7.52c0,.54-.44.98-.98.98H1.18c-.54,0-.98-.44-.98-.98V1.18C.2.64.64.2,1.18.2Z"/>
      <path class="cls-1" d="M1.18,0h7.52c.65,0,1.18.53,1.18,1.18v7.52c0,.65-.53,1.18-1.18,1.18H1.18c-.65,0-1.18-.53-1.18-1.18V1.18C0,.53.53,0,1.18,0Z"/>
      <path class="cls-2" d="M8.13,5.82v1.19h.63v-1.78H1.75v-2.57c0-.17-.14-.31-.31-.31h0c-.17,0-.31.14-.31.31v4.34h.62v-1.19h6.38Z"/>
      <path class="cls-2" d="M2.71,3.91c.31,0,.56-.25.56-.56s-.25-.56-.56-.56-.56.25-.56.56.25.56.56.56Z"/>
      <path class="cls-2" d="M8.77,4.76v-.78c0-.25-.21-.42-.45-.45l-4.43-.44s-.02,0-.02,0c-.15,0-.28.12-.28.28v.84h-1.16c-.16,0-.28.12-.28.28s.12.28.28.28h6.34Z"/>
    </g>
  </g>
</svg>