<?xml version="1.0" encoding="UTF-8"?>
<svg id="Calque_2" data-name="Calque 2" xmlns="http://www.w3.org/2000/svg" viewBox="0 0 9.88 9.88">
  <defs>
    <style>
      .cls-1 {
        fill: #231f20;
      }

      .cls-2 {
        fill: #fff;
      }
    </style>
  </defs>
  <g id="Layer_1" data-name="Layer 1">
    <g>
      <path class="cls-2" d="M1.18.2h7.52c.54,0,.98.44.98.98v7.52c0,.54-.44.98-.98.98H1.18c-.54,0-.98-.44-.98-.98V1.18C.2.64.64.2,1.18.2Z"/>
      <path class="cls-1" d="M1.18,0h7.52c.65,0,1.18.53,1.18,1.18v7.52c0,.65-.53,1.18-1.18,1.18H1.18c-.65,0-1.18-.53-1.18-1.18V1.18C0,.53.53,0,1.18,0Z"/>
      <path class="cls-2" d="M4.94,8.45c1.94,0,3.51-1.57,3.51-3.51s-1.57-3.51-3.51-3.51-3.51,1.57-3.51,3.51,1.57,3.51,3.51,3.51ZM.83,4.94C.83,2.67,2.67.83,4.94.83s4.11,1.84,4.11,4.11-1.84,4.11-4.11,4.11S.83,7.21.83,4.94Z"/>
      <path class="cls-2" d="M4.49,6.2h.84v-.65c0-.18.08-.35.3-.49.22-.14.84-.44.84-1.21s-.65-1.3-1.19-1.41c-.54-.11-1.13-.04-1.55.42-.38.41-.45.73-.45,1.45h.84v-.17c0-.38.04-.78.59-.89.3-.06.58.03.74.2.19.19.19.6-.11.81l-.47.32c-.28.18-.37.38-.37.66v.97Z"/>
      <rect class="cls-2" x="4.48" y="6.58" width=".85" height=".86"/>
    </g>
  </g>
</svg>