<?xml version="1.0" encoding="UTF-8"?>
<svg id="Calque_2" data-name="Calque 2" xmlns="http://www.w3.org/2000/svg" viewBox="0 0 9.88 9.88">
  <defs>
    <style>
      .cls-1 {
        fill: #231f20;
      }

      .cls-2 {
        fill: #fff;
      }
    </style>
  </defs>
  <g id="Layer_1" data-name="Layer 1">
    <g>
      <path class="cls-2" d="M1.18.2h7.52c.54,0,.98.44.98.98v7.52c0,.54-.44.98-.98.98H1.18c-.54,0-.98-.44-.98-.98V1.18C.2.64.64.2,1.18.2Z"/>
      <path class="cls-1" d="M1.18,0h7.52c.65,0,1.18.53,1.18,1.18v7.52c0,.65-.53,1.18-1.18,1.18H1.18c-.65,0-1.18-.53-1.18-1.18V1.18C0,.53.53,0,1.18,0Z"/>
      <path class="cls-2" d="M4.96,3.31c.6,0,1.08-.49,1.08-1.09s-.49-1.09-1.08-1.09-1.09.49-1.09,1.09.49,1.09,1.09,1.09Z"/>
      <path class="cls-2" d="M6.01,3.57c.5.02.71.41.71.41l1.6,2.2c.07.1.11.22.11.35,0,.34-.28.62-.62.62-.08,0-.16-.02-.23-.04l-.97-.27v.96h-3.36v-.96l-.97.27c-.07.03-.15.04-.23.04-.34,0-.62-.28-.62-.62,0-.13.04-.25.11-.35l1.6-2.2s.21-.4.71-.41h2.16ZM4.94,7.13h0l1.25-.42h-.03c-.86-.26-.53-1.4.33-1.15l.12.04v-1.29l-1.68.55-1.68-.55v1.29l.12-.04c.86-.25,1.2.89.33,1.14h-.03s1.25.42,1.25.42h0Z"/>
      <path class="cls-2" d="M8.38,8.56c.09,0,.15-.07.15-.15h0c0-.09-.07-.15-.15-.15H1.61c-.08,0-.15.07-.15.15h0c0,.09.07.15.15.15h6.77Z"/>
    </g>
  </g>
</svg>