<?xml version="1.0" encoding="UTF-8"?><svg id="a" xmlns="http://www.w3.org/2000/svg" width="24" height="24" viewBox="0 0 24 24"><path d="M10.32,8.67c.04,1.94.59,4.11,1.59,5.69-.26,2.78-1.56,5.36-3.17,5.85-1.8.54-4.9-1.04-6.65-3.43-.23-.31-.44-.64-.63-.97v-5.47c2.26-.15,6.07-.83,8.95-3.39-.06.56-.1,1.14-.09,1.72Z"/><path d="M22.54,5.74v4.63c-.35.52-.74,1.04-1.18,1.52-2.07,2.27-5.16,3.63-6.84,2.87-1.71-.78-2.99-4.03-2.72-6.97.26-2.94,1.8-5.65,2.21-6.33h.28c.73.68,3.98,3.55,8.25,4.28Z"/><path d="M21.13,0H2.87C1.29,0,0,1.28,0,2.87v18.26c0,1.58,1.29,2.87,2.87,2.87h18.26c1.58,0,2.87-1.29,2.87-2.87V2.87c0-1.59-1.29-2.87-2.87-2.87ZM22.54,10.37c-.35.52-.74,1.04-1.18,1.52-2.07,2.27-5.16,3.63-6.84,2.87-1.71-.78-2.99-4.03-2.72-6.97.26-2.94,1.8-5.65,2.21-6.33h.28c.73.68,3.98,3.55,8.25,4.28v4.63ZM2.09,16.78c-.23-.31-.44-.64-.63-.97v-5.47c2.26-.15,6.07-.83,8.95-3.39-.06.56-.1,1.14-.09,1.72.04,1.94.59,4.11,1.59,5.69-.26,2.78-1.56,5.36-3.17,5.85-1.8.54-4.9-1.04-6.65-3.43Z"/><path d="M10.32,8.67c.04,1.94.59,4.11,1.59,5.69-.26,2.78-1.56,5.36-3.17,5.85-1.8.54-4.9-1.04-6.65-3.43-.23-.31-.44-.64-.63-.97v-5.47c2.26-.15,6.07-.83,8.95-3.39-.06.56-.1,1.14-.09,1.72Z"/><path d="M22.54,5.74v4.63c-.35.52-.74,1.04-1.18,1.52-2.07,2.27-5.16,3.63-6.84,2.87-1.71-.78-2.99-4.03-2.72-6.97.26-2.94,1.8-5.65,2.21-6.33h.28c.73.68,3.98,3.55,8.25,4.28Z"/><path d="M10.32,8.67c-.01-.58.03-1.16.09-1.72-2.88,2.56-6.69,3.24-8.95,3.39v5.47c.19.33.4.66.63.97,1.75,2.39,4.85,3.97,6.65,3.43,1.61-.49,2.91-3.07,3.17-5.85-1-1.58-1.55-3.75-1.59-5.69ZM6.41,11.2c.08-.18.3-.27.48-.18.15.07,1.47.64,2.2-.67.1-.17.33-.23.5-.14.17.1.23.32.14.5-.53.94-1.32,1.22-2.02,1.22-.44,0-.85-.12-1.13-.25-.18-.08-.26-.3-.17-.48ZM2.96,13.4c-.39,0-.75-.07-.99-.16-.19-.07-.29-.28-.22-.46.07-.19.27-.29.46-.23.06.02,1.51.52,2.24-.66.11-.17.33-.22.5-.12.17.1.23.33.12.5-.54.88-1.39,1.13-2.11,1.13ZM9.83,17.1c-.62-.13-1.78-.31-2.25-.19-.4.11-1.22.87-1.67,1.37-.1.11-.23.17-.36.17-.08,0-.16-.02-.24-.06-.19-.11-.29-.34-.23-.56.41-1.53,1.11-2.44,2.07-2.69,1.54-.42,3.06,1.08,3.13,1.14.15.15.19.39.08.58-.1.19-.32.28-.53.24Z" fill="#fff"/><path d="M14.29,1.46h-.28c-.41.68-1.95,3.39-2.21,6.33-.27,2.94,1.01,6.19,2.72,6.97,1.68.76,4.77-.6,6.84-2.87.44-.48.83-1,1.18-1.52v-4.63c-4.27-.73-7.52-3.6-8.25-4.28ZM14.3,4.87c1.54-.51,2.62.66,2.98,1.34.09.18.02.4-.16.49-.05.03-.11.04-.17.04-.13,0-.25-.07-.32-.19-.03-.06-.76-1.41-2.11-.99-.19.06-.4-.05-.45-.24-.06-.19.04-.39.23-.45ZM18.28,12.87c-.87.37-1.63.56-2.28.56-.57,0-1.05-.14-1.44-.44-1.2-.9-.97-2.8-.95-2.88.02-.21.18-.37.38-.41.19-.05.41.04.51.22.01.01.62,1.01,1.43,1.49.81.49,2.15.52,2.17.52.22.01.42.17.46.4.05.22-.07.45-.28.54ZM21.45,8.9s-.09.02-.14.02c-.14,0-.28-.09-.33-.23-.03-.06-.61-1.48-2-1.2-.2.04-.39-.09-.43-.29-.04-.2.09-.39.29-.43,1.6-.3,2.54.94,2.81,1.65.08.19-.02.4-.2.48Z" fill="#fff"/></svg>
