<?xml version="1.0" encoding="UTF-8"?>
<svg id="Calque_2" data-name="Calque 2" xmlns="http://www.w3.org/2000/svg" viewBox="0 0 9.88 9.88">
  <defs>
    <style>
      .cls-1 {
        fill: #231f20;
      }

      .cls-2 {
        fill: #fff;
      }
    </style>
  </defs>
  <g id="Layer_1" data-name="Layer 1">
    <g>
      <rect class="cls-2" x=".2" y=".2" width="9.48" height="9.48" rx=".98" ry=".98"/>
      <rect class="cls-1" y="0" width="9.88" height="9.88" rx="1.18" ry="1.18"/>
      <polygon class="cls-2" points="8.73 3.09 8.08 8.2 5.89 8.2 5.24 3.09 7.92 3.09 8.45 1.25 8.74 1.33 8.24 3.09 8.73 3.09"/>
      <path class="cls-2" d="M4.94,6.06s.08-.74-1.05-.74h-1.81c-1.13,0-1.05.74-1.05.74h3.91Z"/>
      <path class="cls-2" d="M1.02,7.45s-.08.74,1.05.74h1.81c1.13,0,1.05-.74,1.05-.74H1.02Z"/>
      <path class="cls-2" d="M4.77,7.09c.19,0,.34-.15.34-.34s-.15-.33-.34-.33H1.18c-.19,0-.34.15-.34.33s.15.34.34.34h3.59Z"/>
    </g>
  </g>
</svg>