<?xml version="1.0" encoding="UTF-8"?>
<svg id="Calque_2" data-name="Calque 2" xmlns="http://www.w3.org/2000/svg" viewBox="0 0 9.88 9.88">
  <defs>
    <style>
      .cls-1 {
        fill: #231f20;
      }

      .cls-2 {
        fill: #fff;
      }
    </style>
  </defs>
  <g id="Layer_1" data-name="Layer 1">
    <g>
      <path class="cls-2" d="M1.18.2h7.52c.54,0,.98.44.98.98v7.52c0,.54-.44.98-.98.98H1.18c-.54,0-.98-.44-.98-.98V1.18C.2.64.64.2,1.18.2Z"/>
      <path class="cls-1" d="M8.25,6.86s-.06,0-.09-.01l-.26-.09c-.41,1.25-1.58,2.15-2.97,2.15s-2.56-.9-2.97-2.15l-.26.08s-.06.01-.09.01c-.18,0-.32-.14-.32-.32,0-.03,0-.05,0-.07l.24-1.48c.03-.14.15-.24.29-.24.09,0,.17.04.22.1l1.1,1.03s.04.03.05.05c.11.14.07.34-.07.45-.03.02-.06.03-.09.04l-.28.09c.27.76.95,1.34,1.76,1.49V3.11c-.39-.17-.67-.55-.67-1,0-.6.49-1.09,1.09-1.09s1.09.49,1.09,1.09c0,.45-.27.84-.66,1v4.87c.79-.16,1.44-.73,1.71-1.48l-.28-.09s-.06-.03-.09-.04c-.14-.11-.17-.3-.07-.45.02-.02.03-.04.05-.05l1.1-1.03c.06-.06.13-.1.22-.1.14,0,.27.11.29.24l.24,1.48s0,.05,0,.07c0,.18-.14.32-.32.32ZM8.7,0H1.18C.53,0,0,.53,0,1.18v7.52c0,.65.53,1.18,1.18,1.18h7.52c.65,0,1.18-.53,1.18-1.18V1.18c0-.65-.53-1.18-1.18-1.18Z"/>
      <path class="cls-2" d="M8.32,4.99c-.03-.14-.15-.24-.29-.24-.09,0-.17.04-.22.1l-1.1,1.03s-.04.03-.05.05c-.1.14-.07.34.07.45.03.02.06.03.09.04l.28.09c-.27.75-.91,1.32-1.71,1.48V3.11c.39-.17.66-.55.66-1,0-.6-.49-1.09-1.09-1.09s-1.09.49-1.09,1.09c0,.45.28.84.67,1v4.88c-.81-.15-1.49-.72-1.76-1.49l.28-.09s.06-.03.09-.04c.14-.11.17-.3.07-.45-.02-.02-.03-.04-.05-.05l-1.1-1.03c-.05-.06-.13-.1-.22-.1-.15,0-.27.11-.29.24l-.24,1.48s0,.05,0,.07c0,.18.14.32.32.32.03,0,.06,0,.09-.01l.26-.08c.41,1.25,1.58,2.15,2.97,2.15s2.56-.9,2.97-2.15l.26.09s.06.01.09.01c.18,0,.32-.14.32-.32,0-.03,0-.05,0-.07l-.24-1.48Z"/>
      <path class="cls-1" d="M4.95,1.66c-.25,0-.45.2-.45.45s.2.45.45.45.45-.2.45-.45-.2-.45-.45-.45Z"/>
    </g>
  </g>
</svg>