<?xml version="1.0" encoding="UTF-8"?>
<svg id="Calque_2" data-name="Calque 2" xmlns="http://www.w3.org/2000/svg" viewBox="0 0 9.88 9.88">
  <defs>
    <style>
      .cls-1 {
        fill: #231f20;
      }

      .cls-2 {
        fill: #fff;
      }
    </style>
  </defs>
  <g id="Layer_1" data-name="Layer 1">
    <g>
      <path class="cls-2" d="M1.18.2h7.52c.54,0,.98.44.98.98v7.52c0,.54-.44.98-.98.98H1.18c-.54,0-.98-.44-.98-.98V1.18C.2.64.64.2,1.18.2Z"/>
      <path class="cls-1" d="M1.18,0h7.52c.65,0,1.18.53,1.18,1.18v7.52c0,.65-.53,1.18-1.18,1.18H1.18c-.65,0-1.18-.53-1.18-1.18V1.18C0,.53.53,0,1.18,0Z"/>
      <path class="cls-2" d="M6.59,2.98l-.72-.56v-1.16c-.29.15-.8.63-.67,1.31.01.2.17.72.1,1-.09.38-.12.38-.66,1.05l-2.7,3.3c-.18.2-.16.52.04.7.21.18.52.16.7-.04l3.38-4.16c.21-.27.61-.5.95-.59.58-.18,1.02-.72,1.02-1.36,0-.52-.3-1.01-.69-1.21v1.14s-.74.58-.74.58Z"/>
    </g>
  </g>
</svg>