<?xml version="1.0" encoding="UTF-8"?>
<svg id="Calque_2" data-name="Calque 2" xmlns="http://www.w3.org/2000/svg" viewBox="0 0 9.88 9.88">
  <defs>
    <style>
      .cls-1 {
        fill: #231f20;
      }

      .cls-2 {
        fill: #fff;
      }
    </style>
  </defs>
  <g id="Layer_1" data-name="Layer 1">
    <g>
      <g>
        <path class="cls-2" d="M1.18.2h7.52c.54,0,.98.44.98.98v7.52c0,.54-.44.98-.98.98H1.18c-.54,0-.98-.44-.98-.98V1.18C.2.64.64.2,1.18.2Z"/>
        <path class="cls-1" d="M1.18,0h7.52c.65,0,1.18.53,1.18,1.18v7.52c0,.65-.53,1.18-1.18,1.18H1.18c-.65,0-1.18-.53-1.18-1.18V1.18C0,.53.53,0,1.18,0Z"/>
      </g>
      <polygon class="cls-2" points="7.41 7.63 6.5 6.54 7.18 6.54 6.38 5.57 6.94 5.57 6.2 4.64 6.7 4.64 5.98 3.71 6.47 3.71 5.77 2.79 6.23 2.79 4.94 .98 3.65 2.79 4.11 2.79 3.42 3.71 3.9 3.71 3.18 4.64 3.69 4.64 2.94 5.57 3.51 5.57 2.71 6.54 3.38 6.54 2.47 7.63 4.73 7.45 4.73 9.02 5.16 9.02 5.16 7.45 7.41 7.63"/>
    </g>
  </g>
</svg>