<?xml version="1.0" encoding="UTF-8"?>
<svg id="Calque_2" data-name="Calque 2" xmlns="http://www.w3.org/2000/svg" viewBox="0 0 9.88 9.88">
  <defs>
    <style>
      .cls-1 {
        fill: #fff;
      }
    </style>
  </defs>
  <g id="Layer_1" data-name="Layer 1">
    <g>
      <path class="cls-1" d="M2.2.21h5.54c1.09,0,1.97.88,1.97,1.97v5.54c0,1.09-.88,1.97-1.97,1.97H2.2c-1.09,0-1.98-.89-1.98-1.98V2.19C.23,1.1,1.11.21,2.2.21Z"/>
      <path d="M2.06,0h5.76c1.14,0,2.06.92,2.06,2.06v5.76c0,1.14-.92,2.06-2.06,2.06H2.06c-1.14,0-2.06-.92-2.06-2.06V2.06C0,.92.92,0,2.06,0Z"/>
      <path class="cls-1" d="M7.94,7.34c.38,0,.69-.31.69-.69s-.31-.69-.69-.69-.69.31-.69.69.31.69.69.69Z"/>
      <path class="cls-1" d="M2.47,7.34c.38,0,.69-.31.69-.69s-.31-.69-.69-.69-.69.31-.69.69.31.69.69.69Z"/>
      <path class="cls-1" d="M9.08,6.5c.09,0,.09-.06.09-.06l.09-1.31-.39-1.5s-.08-.26-.4-.26H1.98s-.97,0-1.24,1.14v1.56s0,.36.29.43h.5c.05,0,.06-.1.06-.1.05-.44.43-.79.89-.79s.85.36.89.81c0,0,0,.08.06.07h3.55c.08,0,.07-.08.07-.08.05-.44.43-.79.89-.79s.88.38.92.84c0,0,.01.03.06.03"/>
      <path d="M2.36,4.93h-1.28s-.12-.24-.04-.54c0,0,.12-.46.53-.59h.79"/>
      <rect x="2.74" y="3.81" width="1.48" height="1.12"/>
      <rect x="4.6" y="3.81" width="1.49" height="1.12"/>
      <path d="M6.46,3.81v1.12h1.21s.12,0,.12-.14c0-.24,0-.83,0-.83,0,0,.02-.15-.16-.15h-1.18Z"/>
      <path d="M8.7,4.72s.05.22-.07.22h-.34s-.12.02-.12-.19v-.83s.01-.12.15-.12c0,0,.14-.02.17.09l.2.82Z"/>
    </g>
  </g>
</svg>