<?xml version="1.0" encoding="UTF-8"?>
<svg id="Calque_2" data-name="Calque 2" xmlns="http://www.w3.org/2000/svg" viewBox="0 0 9.88 9.88">
  <defs>
    <style>
      .cls-1 {
        fill: #231f20;
      }

      .cls-2 {
        fill: #fff;
      }
    </style>
  </defs>
  <g id="Layer_1" data-name="Layer 1">
    <g>
      <path class="cls-2" d="M1.18.2h7.52c.54,0,.98.44.98.98v7.52c0,.54-.44.98-.98.98H1.18c-.54,0-.98-.44-.98-.98V1.18C.2.64.64.2,1.18.2Z"/>
      <path class="cls-1" d="M1.18,0h7.52c.65,0,1.18.53,1.18,1.18v7.52c0,.65-.53,1.18-1.18,1.18H1.18c-.65,0-1.18-.53-1.18-1.18V1.18C0,.53.53,0,1.18,0Z"/>
      <path class="cls-2" d="M5.08,5.59c-.14-.14-.14-.37,0-.51.14-.14.37-.14.51,0l.72.72v-1.02c0-.2.16-.36.36-.36s.36.16.36.36v1.02l.72-.72c.14-.14.37-.14.51,0,.14.14.14.37,0,.51l-.72.72h1.02c.2,0,.36.16.36.37s-.16.36-.36.36h-1.02l.72.72c.14.14.14.37,0,.51-.14.14-.37.14-.51,0l-.72-.72v1.02c0,.2-.17.36-.37.36s-.36-.16-.36-.36v-1.02l-.72.72c-.14.14-.37.14-.51,0s-.14-.37,0-.51l.72-.72h-1.02c-.2,0-.36-.16-.36-.36s.16-.36.36-.36h1.02l-.72-.72Z"/>
      <path class="cls-2" d="M4.67,1.93c0-.2-.16-.36-.36-.36s-.36.16-.36.36v1.5L1.82,1.31c-.14-.14-.37-.14-.51,0-.14.14-.14.37,0,.51l2.12,2.12h-1.5c-.2,0-.36.16-.36.36s.16.36.36.36h2.38c.09,0,.19-.04.26-.11.07-.07.11-.16.11-.26V1.93Z"/>
    </g>
  </g>
</svg>