<?xml version="1.0" encoding="UTF-8"?>
<svg id="Calque_2" data-name="Calque 2" xmlns="http://www.w3.org/2000/svg" viewBox="0 0 938.67 469.33">
  <g id="Calque_1-2" data-name="Calque 1">
    <path d="M256,298.67v-131.84c-30.72-14.08-59.31-31.15-85.33-51.2v183.04h85.33M170.67,469.33h-85.33v-85.33H0v-85.33h85.33V0h85.33v61.01c76.8,66.99,182.19,109.65,298.67,109.65s221.87-42.67,298.67-109.65V0h85.33v298.67h85.33v85.33h-85.33v85.33h-85.33v-85.33H170.67v85.33M682.67,166.83v131.84h85.33V115.63c-26.03,20.05-54.61,37.12-85.33,51.2M640,298.67v-114.35c-27.31,9.81-55.89,17.07-85.33,22.19v92.16h85.33M512,298.67v-87.04l-42.67,1.71-42.67-1.71v87.04h85.33M384,298.67v-92.16c-29.44-5.12-58.03-12.37-85.33-22.19v114.35h85.33Z"/>
  </g>
</svg>