<?xml version="1.0" encoding="UTF-8"?>
<svg id="Calque_2" data-name="Calque 2" xmlns="http://www.w3.org/2000/svg" viewBox="0 0 9.88 9.88">
  <defs>
    <style>
      .cls-1 {
        fill: #fff;
      }
    </style>
  </defs>
  <g id="Layer_1" data-name="Layer 1">
    <g>
      <rect class="cls-1" x=".2" y=".24" width="9.49" height="9.49" rx="1.98" ry="1.98"/>
      <rect width="9.88" height="9.88" rx="2.06" ry="2.06"/>
      <path class="cls-1" d="M7.5,2.94c.12,0,.22-.1.22-.22s-.1-.22-.22-.22-.22.1-.22.22.1.22.22.22Z"/>
      <rect class="cls-1" x="7.35" y="2.82" width=".27" height="2.38"/>
      <path class="cls-1" d="M8.78,4.02c-.3-.2-.35-.24-.35-.24-.23-.15-.4-.08-.4-.08-.33.08-.44.04-.44.04v-.79s.1.05.44-.04c0,0,.17-.08.4.07,0,0,.06.04.36.24v.8Z"/>
      <rect class="cls-1" x="4.97" y="5.48" width="3.26" height="2.33"/>
      <polyline class="cls-1" points="4.97 5.48 6.59 4.23 8.23 5.48"/>
      <polygon class="cls-1" points="2.3 5.92 3.82 5.92 3.78 9.06 3.32 9.06 3.16 6.75 2.98 6.75 2.84 9.06 2.34 9.06 2.3 5.92"/>
      <path class="cls-1" d="M3.06,2.8h-.7s-.11,0-.25.17l-.99,1.07s-.15.11.01.3l1.17,1.15v.21h.76"/>
      <path class="cls-1" d="M3.06,2.8h.7s.11,0,.25.17l.99,1.07s.15.11-.01.3l-1.17,1.15v.21h-.76"/>
      <polyline class="cls-1" points="3.06 .89 2.77 .89 2.41 1.21 2.41 1.5 3.05 1.5"/>
      <polyline class="cls-1" points="3.06 .89 3.38 .89 3.74 1.21 3.74 1.5 3.05 1.5"/>
      <path class="cls-1" d="M3.08,2.63c.33,0,.59-.27.59-.6,0-.06,0-.12-.02-.17l.44.02c.05-.05.05-.16.05-.16-.48-.08-1.06-.08-1.06-.08"/>
      <path class="cls-1" d="M3.07,2.63c-.33,0-.59-.27-.59-.6,0-.06,0-.12.02-.17l-.44.02c-.05-.05-.05-.16-.05-.16.48-.08,1.06-.08,1.06-.08"/>
      <path d="M2.31,3.62v1.31s-.13-.02-.37-.33c0,0-.18-.32-.21-.37l-.04-.08.59-.55s.01-.02.03.02Z"/>
      <path d="M3.81,3.62v1.31s.13-.02.37-.33c0,0,.17-.32.21-.38l.04-.07-.59-.55s-.01-.02-.03.03Z"/>
    </g>
  </g>
</svg>