<?xml version="1.0" encoding="UTF-8"?>
<svg id="Calque_2" data-name="Calque 2" xmlns="http://www.w3.org/2000/svg" viewBox="0 0 9.88 9.88">
  <defs>
    <style>
      .cls-1 {
        fill: #231f20;
      }

      .cls-2 {
        fill: #fff;
      }
    </style>
  </defs>
  <g id="Layer_1" data-name="Layer 1">
    <g>
      <path class="cls-2" d="M1.18.2h7.52c.54,0,.98.44.98.98v7.52c0,.54-.44.98-.98.98H1.18c-.54,0-.98-.44-.98-.98V1.18C.2.64.64.2,1.18.2Z"/>
      <path class="cls-1" d="M1.18,0h7.52c.65,0,1.18.53,1.18,1.18v7.52c0,.65-.53,1.18-1.18,1.18H1.18c-.65,0-1.18-.53-1.18-1.18V1.18C0,.53.53,0,1.18,0Z"/>
      <g>
        <path class="cls-2" d="M4.46,4.8c-.12,0-.25.01-.37.03l-.9-2.85c-.12-.38-.54-.62-.92-.63-.24,0-.69-.08-.69.29,0,.39.49.27.72.28.13,0,.31.14.35.27l.23.71H.95v.58h2.12l.03.09L.95,5.74c.02.26,0,.54,0,.8l2.34-2.34.26.81c-.71.34-1.2,1.06-1.2,1.9,0,1.17.94,2.11,2.11,2.11s2.11-.94,2.11-2.11-.94-2.11-2.11-2.11ZM4.46,8.47c-.86,0-1.56-.7-1.56-1.56,0-.59.33-1.1.82-1.37l.46,1.46c.05.15.21.24.36.19.15-.05.24-.21.19-.36l-.46-1.47c.07,0,.13-.02.2-.02.86,0,1.56.7,1.56,1.56s-.7,1.56-1.56,1.56Z"/>
        <path class="cls-2" d="M6.95,2.18l-.67.23-.75-.49c-.03.25.07.78.57.98.14.08.53.19.69.35.2.22.2.24.4.87l.99,3.13c.06.2.27.32.47.27.2-.06.32-.27.27-.47l-1.26-3.93c-.08-.25-.07-.6.02-.86.13-.45-.04-.96-.45-1.23-.33-.22-.78-.23-1.07-.06l.73.48.06.72Z"/>
      </g>
    </g>
  </g>
</svg>