<?xml version="1.0" encoding="UTF-8"?>
<svg id="Calque_2" data-name="Calque 2" xmlns="http://www.w3.org/2000/svg" viewBox="0 0 9.88 9.88">
  <defs>
    <style>
      .cls-1 {
        fill: #231f20;
      }

      .cls-2 {
        fill: #fff;
      }
    </style>
  </defs>
  <g id="Layer_1" data-name="Layer 1">
    <g>
      <rect class="cls-2" x=".2" y=".2" width="9.48" height="9.48" rx=".98" ry=".98"/>
      <rect class="cls-1" x="0" width="9.88" height="9.88" rx="1.18" ry="1.18"/>
      <path class="cls-2" d="M9.05,8.14c-.18,0-.35-.04-.51-.11-.16-.07-.34-.12-.52-.12s-.36.04-.52.12c-.16.07-.33.11-.51.11s-.35-.04-.51-.11c-.16-.07-.34-.12-.52-.12s-.36.04-.52.12c-.15.07-.33.11-.51.11s-.35-.04-.51-.11c-.16-.07-.34-.12-.52-.12s-.37.04-.52.12c-.15.07-.33.11-.51.11s-.35-.04-.51-.11c-.16-.07-.34-.12-.52-.12s-.36.04-.52.12c-.15.07-.33.11-.51.11v-.76c.18,0,.35-.04.51-.11.16-.07.34-.12.52-.12s.36.04.52.12c.16.07.33.11.51.11s.35-.04.51-.11c.16-.07.34-.12.52-.12s.36.04.52.12c.15.07.33.11.51.11s.35-.04.51-.11c.16-.07.34-.12.52-.12s.36.04.52.12c.16.07.33.11.51.11s.35-.04.51-.11c.16-.07.34-.12.52-.12s.36.04.52.12c.15.07.33.11.51.11v.76Z"/>
      <path class="cls-2" d="M.82,4.87v1.79c.18,0,.35-.04.5-.11.16-.07.34-.12.52-.12s.36.04.52.12c.16.07.33.11.51.11s.35-.04.51-.11c.16-.07.34-.12.52-.12s.36.04.52.12c.15.07.33.11.51.11s.35-.04.51-.11c.16-.07.34-.12.52-.12s.36.04.52.12c.16.07.33.11.51.11.05,0,.1-.01.15-.02.09-.02.18-.03.27-.06,0,0,0,0,0,0,.65-.27,1.22-.92,1.57-1.41l.18-.3H.82Z"/>
      <path class="cls-2" d="M5.48,2.94h1.22s0,0,0,0c.01,0,.33-.01.44.22l.46,1.1h-1.57l-.55-1.32ZM2.21,4.11c0,.08-.07.15-.15.15h-.67c-.08,0-.15-.07-.15-.15v-1.02c0-.08.07-.15.15-.15h.67c.08,0,.15.07.15.15v1.02ZM4.99,4.11c0,.08-.07.15-.15.15h-.67c-.08,0-.15-.07-.15-.15v-1.02c0-.08.07-.15.15-.15h.67c.08,0,.15.07.15.15v1.02ZM3.59,4.11c0,.08-.07.15-.15.15h-.67c-.08,0-.15-.07-.15-.15v-1.02c0-.08.07-.15.15-.15h.67c.08,0,.15.07.15.15v1.02ZM7.35,2.85c-.2-.45-.74-.41-.74-.41H.82v2.13s7.26,0,7.26,0l-.73-1.72Z"/>
    </g>
  </g>
</svg>