<?xml version="1.0" encoding="UTF-8"?>
<svg id="Calque_2" data-name="Calque 2" xmlns="http://www.w3.org/2000/svg" viewBox="0 0 9.88 9.88">
  <defs>
    <style>
      .cls-1 {
        fill: #231f20;
      }

      .cls-2 {
        fill: #fff;
      }
    </style>
  </defs>
  <g id="Layer_1" data-name="Layer 1">
    <g>
      <path class="cls-2" d="M1.18.2h7.52c.54,0,.98.44.98.98v7.52c0,.54-.44.98-.98.98H1.18c-.54,0-.98-.44-.98-.98V1.18C.2.64.64.2,1.18.2Z"/>
      <path class="cls-1" d="M1.18,0h7.52c.65,0,1.18.53,1.18,1.18v7.52c0,.65-.53,1.18-1.18,1.18H1.18c-.65,0-1.18-.53-1.18-1.18V1.18C0,.53.53,0,1.18,0Z"/>
      <path class="cls-2" d="M2.35,8.12c.79,0,1.43-.64,1.43-1.43s-.64-1.43-1.43-1.43-1.43.64-1.43,1.43.64,1.43,1.43,1.43ZM.59,6.69c0-.97.79-1.76,1.76-1.76s1.76.79,1.76,1.76-.79,1.76-1.76,1.76-1.76-.79-1.76-1.76Z"/>
      <path class="cls-2" d="M7.53,8.14c.79,0,1.43-.64,1.43-1.43s-.64-1.43-1.43-1.43-1.43.64-1.43,1.43.64,1.43,1.43,1.43ZM5.77,6.7c0-.97.79-1.76,1.76-1.76s1.76.79,1.76,1.76-.79,1.76-1.76,1.76-1.76-.79-1.76-1.76Z"/>
      <path class="cls-2" d="M5.78,2.41c.37,0,.66-.29.66-.66s-.3-.66-.66-.66-.66.3-.66.66.3.66.66.66Z"/>
      <path class="cls-2" d="M5.8,4.02c-.1,0-.2-.05-.28-.17l-.43-.67-.89.88.82.43c.34.16.29.46.29.46v1.86c0,.21-.17.38-.38.38s-.38-.17-.38-.38v-1.49l-1.43-.79c-.17-.09-.29-.28-.29-.48,0-.14.05-.27.14-.37l1.4-1.4c.17-.2.42-.17.42-.17.29,0,.45.26.45.26l.73,1.14h1.1c.4,0,.4.52,0,.52h-1.28Z"/>
    </g>
  </g>
</svg>