<?xml version="1.0" encoding="UTF-8"?>
<svg id="Calque_2" data-name="Calque 2" xmlns="http://www.w3.org/2000/svg" viewBox="0 0 9.88 9.88">
  <defs>
    <style>
      .cls-1 {
        fill: #231f20;
      }

      .cls-2 {
        fill: #fff;
      }
    </style>
  </defs>
  <g id="Layer_1" data-name="Layer 1">
    <g>
      <path class="cls-2" d="M1.18.2h7.52c.54,0,.98.44.98.98v7.52c0,.54-.44.98-.98.98H1.18c-.54,0-.98-.44-.98-.98V1.18C.2.64.64.2,1.18.2Z"/>
      <path class="cls-1" d="M1.18,0h7.52c.65,0,1.18.53,1.18,1.18v7.52c0,.65-.53,1.18-1.18,1.18H1.18c-.65,0-1.18-.53-1.18-1.18V1.18C0,.53.53,0,1.18,0Z"/>
      <polygon class="cls-2" points="1.34 1.63 4.21 1.63 4.21 1.9 3.93 1.9 3.93 2.21 1.34 2.44 1.34 1.63"/>
      <path class="cls-2" d="M5.41,2.45c.37,0,.66-.29.66-.66s-.29-.66-.66-.66-.66.3-.66.66.3.66.66.66Z"/>
      <path class="cls-2" d="M5.91,2.42c.19-.19.49-.19.68,0l1.43,1.43c.05.05.09.13.09.21v4.29c0,.29-.24.53-.53.53s-.54-.24-.54-.53v-3.54l-1.33-1.33-.53.53c-.06.07-.15.12-.25.12-.1,0-.18-.04-.24-.11l-.92-.92c-.12-.14-.11-.35.03-.47.14-.12.35-.1.46.04l.7.7.96-.96Z"/>
      <path class="cls-2" d="M3.13,2.62c-.01-.06-.07-.11-.14-.11s-.12.05-.14.12l-.22,1.28v4.94h1.89v-.7h-1.16V3.9s-.23-1.28-.23-1.28Z"/>
    </g>
  </g>
</svg>