<?xml version="1.0" encoding="UTF-8"?>
<svg id="Calque_2" data-name="Calque 2" xmlns="http://www.w3.org/2000/svg" viewBox="0 0 22.87 22.87">
  <defs>
    <style>
      .cls-1 {
        fill: #1d1d1b;
      }

      .cls-2 {
        fill: #fff;
      }
    </style>
  </defs>
  <g id="Calque_1-2" data-name="Calque 1">
    <g>
      <rect class="cls-2" width="22.87" height="22.87" rx="2.01" ry="2.01"/>
      <rect class="cls-1" width="22.87" height="22.87" rx="2.01" ry="2.01"/>
      <polygon class="cls-2" points="21.16 21.39 18.93 20.42 14.05 20.42 10.65 18.8 9.16 18.74 4.82 16.92 2.69 16.92 1.32 16.43 1.32 15.55 2.84 16.08 4.99 16.06 9.33 17.91 10.85 17.97 14.22 19.57 19.09 19.57 21.54 20.68 21.16 21.39"/>
      <path class="cls-2" d="M12.24,14.27l-.1.11c-.28.33-.75.35-1.05.06-.29-.26-.31-.71-.07-1.01l.07-.08-2.44-4.49-.47.6s.01.05.02.06c.04.04.1.04.13,0l.08-.07.2.22-.08.06s-.06.1-.02.14c.04.04.1.05.13.02l.11-.06.16.24-.11.06s-.06.1-.04.14c.02.05.08.06.13.05l.11-.06.12.3-.11.04s-.08.06-.07.12c.02.05.08.08.13.06l.11-.04.06.3-.1.02c-.06.01-.1.06-.08.12.01.05.06.08.11.07h.1l.04.25h-.11c-.06.01-.1.05-.1.11,0,.05.04.1.1.1h.1s-.01.3-.01.3h-.11c-.06-.01-.11.04-.12.08,0,.06.04.11.1.11l.1.02-.06.28-.11-.02c-.06-.02-.11.01-.12.06-.02.05.01.11.06.12l.11.05-.12.25-.1-.05c-.06-.02-.12-.01-.14.05-.02.05,0,.11.05.12l.1.07-.16.26-.11-.07s-.11-.01-.14.04c-.04.04-.02.11.02.14l.1.07-.2.23-.08-.08s-.1-.04-.13,0c-.05.05-.05.11,0,.14l.06.07-.2.19-.07-.08s-.1-.05-.14-.02c-.05.04-.06.1-.02.14l.06.1-.23.14-.06-.1s-.08-.06-.13-.04c-.04.01-.06.07-.05.12l.05.11-.26.11-.05-.11c-.02-.06-.07-.08-.13-.06-.05.01-.07.07-.06.12l.02.12-.3.07-.02-.12c0-.06-.05-.1-.11-.08-.05.01-.08.06-.07.11v.13s-.28.01-.28.01v-.12s-.05-.1-.11-.1c-.05,0-.1.04-.1.1v.13s-.3-.02-.3-.02l.02-.13c0-.06-.04-.11-.1-.11-.05-.01-.1.02-.11.08l-.04.11-.28-.06.02-.11c.01-.06-.01-.12-.07-.13-.05-.01-.08.01-.11.06l-.04.11-.26-.11.04-.11s-.01-.1-.05-.12c-.05-.02-.11-.01-.13.04l-.05.1-.24-.14.06-.1s.02-.11-.02-.14-.11-.02-.14.01l-.08.11-.22-.19.08-.08s.02-.1-.01-.14c-.04-.04-.11-.04-.14.01l-.1.06-.17-.19.07-.08s.06-.11.01-.14c-.02-.05-.08-.05-.13-.02l-.08.06-.14-.25.08-.06s.07-.1.05-.14c-.02-.05-.08-.07-.14-.05l-.1.04-.11-.23.1-.04c.06-.02.08-.08.07-.13-.02-.06-.07-.08-.13-.07l-.1.04-.07-.28.1-.02c.06-.01.1-.07.08-.12-.01-.05-.06-.08-.11-.07h-.1s-.02-.29-.02-.29h.1c.06-.01.11-.06.11-.12-.01-.06-.06-.1-.11-.1h-.1v-.25h.12s.11-.04.11-.1c.01-.06-.02-.11-.08-.12l-.1-.02.06-.26.1.02c.06.02.12,0,.14-.06.02-.06-.01-.12-.07-.13l-.11-.04.1-.26.11.04s.12.01.14-.05c.04-.06.01-.12-.05-.14l-.1-.07.14-.24.08.06s.12.02.16-.02c.02-.05.01-.11-.04-.14l-.08-.06.18-.2.08.07s.12.05.17,0c.04-.05.02-.11-.01-.16l-.08-.07.23-.18.08.07s.11.06.16.01c.04-.02.04-.08.01-.13l-.06-.08.23-.14.06.1s.08.07.14.04c.05-.02.07-.08.04-.13l-.04-.11.26-.11.04.1s.07.08.12.07c.06-.02.08-.08.06-.14l-.02-.11.28-.06.05.11c0,.06.06.1.12.08.06-.01.1-.07.08-.13v-.11s.26-.02.26-.02v.12c0,.06.05.12.11.11.06,0,.11-.05.1-.11v-.12l.3.02v.12c-.02.06.02.12.08.12.05.01.1-.04.11-.1v-.11s.3.07.3.07c0,.04-.01.08-.02.12-.01.05.01.11.07.12.05.02.11-.01.12-.07l.05-.11.28.12-.05.11s0,.11.05.13.11,0,.13-.05l.06-.1.12.08,1.46-1.89s-.05-.1-.06-.13l-.11-.06c-.16-.06-.23-.24-.17-.4.07-.16.25-.23.41-.17l.13.06c.14-.06.31-.04.43.06.04-.04.06-.07.11-.08l3.73-2.43c.24-.17.6-.08.76.16l2.64,4.03c.14.26.12.64-.08.87l-.66.71.43.17-.23.58-.64-.27-.08.1.46,2.16h.11s.02.11.02.11c-.01.06.04.12.1.12.06-.01.11-.06.1-.12v-.12s.3.02.3.02v.12c-.02.06.01.12.07.12.06.01.11-.04.11-.08v-.12s.31.07.31.07c-.01.04-.02.08-.02.12-.02.05.01.11.06.12.05.02.12-.01.13-.06l.04-.12.28.12-.04.11s-.01.11.05.13c.05.02.1,0,.12-.05l.06-.08.24.16-.05.1s-.02.1.02.13c.04.04.1.02.13-.01l.08-.08.18.14-.05.11s-.04.1,0,.13c.04.04.08.04.12.01l.1-.08.2.22-.1.06s-.06.1-.02.14c.04.04.1.05.14.02l.11-.06.16.25-.11.05c-.06.04-.07.1-.04.14.02.05.07.07.12.05l.12-.05.11.29-.11.04s-.07.07-.06.12c.01.05.07.08.13.06l.1-.02.07.3h-.11s-.08.07-.07.13c0,.05.05.08.1.07h.11l.02.28h-.11s-.1.05-.1.11c0,.05.05.1.1.1h.1s-.01.3-.01.3h-.11s-.11.04-.11.1c-.01.05.04.1.08.11l.11.02-.07.26-.11-.02s-.11.01-.12.06c-.01.05.01.11.07.12l.1.05-.11.25-.11-.05s-.11,0-.13.05c-.02.05-.01.11.04.13l.11.06-.17.27-.11-.07s-.11-.01-.13.04c-.04.05-.02.11.02.14l.08.07-.2.23-.08-.07s-.1-.04-.13,0c-.04.04-.04.1,0,.13l.06.08-.2.19-.07-.08s-.1-.06-.14-.02c-.04.02-.05.08-.02.13l.06.1-.23.14-.05-.1s-.08-.06-.13-.04c-.05.02-.07.07-.05.12l.05.11-.28.11-.04-.11s-.08-.08-.14-.06c-.05.01-.07.07-.06.12l.04.12-.31.07v-.12c-.02-.06-.07-.1-.12-.08-.06.01-.08.06-.08.11v.13s-.28.01-.28.01v-.12s-.05-.1-.1-.1c-.06,0-.11.05-.1.1v.13s-.3-.02-.3-.02v-.13s-.02-.1-.07-.11c-.06-.01-.11.02-.12.08l-.02.11-.28-.06v-.11c.04-.06,0-.11-.05-.13-.05,0-.1.01-.11.06l-.05.11-.26-.11.04-.11s0-.1-.05-.12-.1,0-.13.04l-.05.1-.24-.14.06-.1s.02-.11-.02-.14c-.05-.04-.11-.02-.14.02l-.08.1-.22-.19.08-.08s.04-.1,0-.13c-.05-.05-.12-.05-.16,0l-.08.07-.18-.2.08-.08s.05-.1.01-.14-.1-.05-.14-.02l-.07.07-.16-.26.1-.06s.06-.08.04-.14c-.02-.05-.08-.07-.13-.05l-.11.04-.11-.23.11-.04s.08-.08.06-.13c-.01-.05-.07-.08-.12-.06l-.11.04-.06-.29.1-.02s.08-.06.07-.12c-.01-.05-.06-.08-.11-.07h-.1s-.02-.29-.02-.29h.11c.06-.01.11-.06.1-.12,0-.06-.05-.1-.11-.1h-.1v-.28h.12c.06,0,.11-.04.12-.08.01-.06-.04-.12-.1-.13l-.1-.02.06-.23-1.19-.48Z"/>
      <path class="cls-1" d="M9.55,7.66l2.77,1.13,2.28-.34-1.75-2.69-2.23,1.46c-.22.16-.53.14-.72-.04l-.35.47Z"/>
      <path class="cls-1" d="M14.22,15.08c-.06.28-.07.57-.02.87.2,1.3,1.45,2.18,2.75,1.94,1.23-.23,2.06-1.4,1.87-2.64-.17-1.18-1.19-2.01-2.35-1.99l.48,2.29c.06.28-.26.54-.52.42l-2.2-.89Z"/>
      <path class="cls-1" d="M7.23,9.62c-.51-.28-1.11-.39-1.71-.24-1.18.29-1.94,1.42-1.76,2.6.2,1.3,1.45,2.18,2.75,1.94,1.23-.23,2.06-1.4,1.87-2.61-.07-.51-.3-.95-.64-1.29l-1.4,1.79c-.11.12-.29.14-.42.06-.16-.1-.19-.3-.08-.45l1.4-1.81Z"/>
      <path class="cls-1" d="M15.63,12.49l-.33-1.65-2.65,2.95,1.17.47s.01-.01.02-.01c.02-.06,0-.12-.06-.16l-.1-.06.14-.24.1.06s.11.02.14-.02c.04-.05.01-.12-.04-.14l-.08-.06.18-.2.08.07s.12.04.17-.01c.04-.04.04-.11-.01-.14l-.07-.08.23-.18.07.08s.11.06.16.01c.04-.04.05-.08.01-.13l-.05-.08.22-.16.06.1s.1.07.14.05c.05-.02.07-.1.05-.14l-.05-.11.26-.11.04.11s.07.07.12.06c.06-.01.1-.07.07-.13l-.02-.11h.01Z"/>
      <path class="cls-1" d="M11.16,9.02l-2.01-.84-.08.11,2.22,4.05-.53-2.58c-.02-.16.01-.31.08-.45.08-.13.19-.23.33-.29Z"/>
      <circle class="cls-2" cx="12.66" cy="2.6" r="1.11"/>
      <path class="cls-1" d="M14.44,14.51l1.73.7-.37-1.84c-.6.18-1.08.6-1.36,1.14Z"/>
      <polygon class="cls-1" points="13.73 10.06 12.33 10.25 12.62 11.6 13.92 10.14 13.73 10.06"/>
    </g>
  </g>
</svg>