<?xml version="1.0" encoding="UTF-8"?><svg id="a" xmlns="http://www.w3.org/2000/svg" width="24" height="24" viewBox="0 0 24 24"><polygon points="18 18.53 12.52 18.1 12.52 21.9 11.48 21.9 11.48 18.1 6 18.53 8.21 15.89 6.57 15.89 8.51 13.53 7.15 13.53 8.95 11.27 7.72 11.27 9.48 9.02 8.3 9.02 9.99 6.76 8.87 6.76 12 2.38 15.13 6.76 14.01 6.76 15.7 9.02 14.52 9.02 16.28 11.27 15.05 11.27 16.85 13.53 15.49 13.53 17.43 15.89 15.79 15.89 18 18.53"/><path d="M21.13,0H2.87C1.29,0,0,1.28,0,2.87v18.26c0,1.58,1.29,2.87,2.87,2.87h18.26c1.58,0,2.87-1.29,2.87-2.87V2.87c0-1.59-1.29-2.87-2.87-2.87ZM12.52,18.1v3.8h-1.04v-3.8l-5.48.43,2.21-2.64h-1.64l1.94-2.36h-1.36l1.8-2.26h-1.23l1.76-2.25h-1.18l1.69-2.26h-1.12l3.13-4.38,3.13,4.38h-1.12l1.69,2.26h-1.18l1.76,2.25h-1.23l1.8,2.26h-1.36l1.94,2.36h-1.64l2.21,2.64-5.48-.43Z"/><polygon points="18 18.53 12.52 18.1 12.52 21.9 11.48 21.9 11.48 18.1 6 18.53 8.21 15.89 6.57 15.89 8.51 13.53 7.15 13.53 8.95 11.27 7.72 11.27 9.48 9.02 8.3 9.02 9.99 6.76 8.87 6.76 12 2.38 15.13 6.76 14.01 6.76 15.7 9.02 14.52 9.02 16.28 11.27 15.05 11.27 16.85 13.53 15.49 13.53 17.43 15.89 15.79 15.89 18 18.53"/><polygon points="18 18.53 12.52 18.1 12.52 21.9 11.48 21.9 11.48 18.1 6 18.53 8.21 15.89 6.57 15.89 8.51 13.53 7.15 13.53 8.95 11.27 7.72 11.27 9.48 9.02 8.3 9.02 9.99 6.76 8.87 6.76 12 2.38 15.13 6.76 14.01 6.76 15.7 9.02 14.52 9.02 16.28 11.27 15.05 11.27 16.85 13.53 15.49 13.53 17.43 15.89 15.79 15.89 18 18.53" fill="#fff"/></svg>