<?xml version="1.0" encoding="UTF-8"?><svg id="a" xmlns="http://www.w3.org/2000/svg" width="24" height="24" viewBox="0 0 24 24"><polygon points="9.83 9.98 9.83 13.73 7.6 11.49 5.37 13.73 5.37 16.03 1.42 11.29 5.37 11.29 5.37 9.98 7.6 7.71 9.83 9.98"/><rect x="11.42" y="19.94" width="1.16" height="1.42"/><polygon points="18.63 16.03 18.63 13.73 16.4 11.49 14.17 13.73 14.17 16.08 18.6 16.08 14.15 21.37 14.15 19.14 12 14.34 9.83 19.14 9.83 21.37 5.4 16.08 9.83 16.08 9.83 13.73 11.23 10.58 11.23 8.63 11.52 8.63 11.92 4.23 11.92 2.63 12.08 2.63 12.08 4.21 12.48 8.63 12.77 8.63 12.77 10.58 14.15 13.74 14.15 9.98 16.38 7.71 18.62 9.98 18.62 11.29 22.58 11.29 18.63 16.03"/><path d="M21.13,0H2.87C1.29,0,0,1.28,0,2.87v18.26c0,1.58,1.29,2.87,2.87,2.87h18.26c1.58,0,2.87-1.29,2.87-2.87V2.87c0-1.59-1.29-2.87-2.87-2.87ZM11.42,21.36v-1.42h1.16v1.42h-1.16ZM16.4,11.49l-2.23,2.24v2.35h4.43l-4.45,5.29v-2.23l-2.15-4.8-2.17,4.8v2.23l-4.43-5.29h4.43v-2.35l-2.23-2.24-2.23,2.24v2.3l-3.95-4.74h3.95v-1.31l2.23-2.27,2.23,2.27v3.75l1.4-3.15v-1.95h.29l.4-4.4v-1.6h.16v1.58l.4,4.42h.29v1.95l1.38,3.16v-3.76l2.23-2.27,2.24,2.27v1.31h3.96l-3.95,4.74v-2.3l-2.23-2.24Z"/><polygon points="9.83 9.98 9.83 13.73 7.6 11.49 5.37 13.73 5.37 16.03 1.42 11.29 5.37 11.29 5.37 9.98 7.6 7.71 9.83 9.98"/><rect x="11.42" y="19.94" width="1.16" height="1.42"/><polygon points="18.63 16.03 18.63 13.73 16.4 11.49 14.17 13.73 14.17 16.08 18.6 16.08 14.15 21.37 14.15 19.14 12 14.34 9.83 19.14 9.83 21.37 5.4 16.08 9.83 16.08 9.83 13.73 11.23 10.58 11.23 8.63 11.52 8.63 11.92 4.23 11.92 2.63 12.08 2.63 12.08 4.21 12.48 8.63 12.77 8.63 12.77 10.58 14.15 13.74 14.15 9.98 16.38 7.71 18.62 9.98 18.62 11.29 22.58 11.29 18.63 16.03"/><rect x="11.42" y="19.94" width="1.16" height="1.42" fill="#fff"/><polygon points="9.83 9.98 9.83 13.73 7.6 11.49 5.37 13.73 5.37 16.03 1.42 11.29 5.37 11.29 5.37 9.98 7.6 7.71 9.83 9.98" fill="#fff" fill-rule="evenodd"/><polygon points="18.63 16.03 18.63 13.73 16.4 11.49 14.17 13.73 14.17 16.08 18.6 16.08 14.15 21.37 14.15 19.14 12 14.34 9.83 19.14 9.83 21.37 5.4 16.08 9.83 16.08 9.83 13.73 11.23 10.58 11.23 8.63 11.52 8.63 11.92 4.23 11.92 2.63 12.08 2.63 12.08 4.21 12.48 8.63 12.77 8.63 12.77 10.58 14.15 13.74 14.15 9.98 16.38 7.71 18.62 9.98 18.62 11.29 22.58 11.29 18.63 16.03" fill="#fff" fill-rule="evenodd"/></svg>